<svg width="10" height="10" viewBox="0 0 78 78" fill="none" xmlns="http://www.w3.org/2000/svg">
<g clip-path="url(#clip0_52_4)">
<path d="M1.75452 4.1282C1.15289 1.91217 3.20748 -0.115636 5.45278 0.478147L29.2515 6.77188C31.4968 7.36566 32.2488 10.1357 30.6052 11.7579L13.1833 28.9527C11.5396 30.575 8.73299 29.8328 8.13137 27.6167L1.75452 4.1282Z" fill="#9C372B"/>
<path d="M5.38085 77.0193C3.13555 77.6131 1.08097 75.5853 1.68259 73.3693L8.05944 49.8807C8.66106 47.6647 11.4677 46.9225 13.1114 48.5447L30.5332 65.7395C32.1769 67.3618 31.4249 70.1318 29.1796 70.7256L5.38085 77.0193Z" fill="#9C372B"/>
<path d="M71.5556 0.549224C73.8008 -0.0445588 75.8554 1.98325 75.2538 4.19928L68.877 27.6878C68.2753 29.9038 65.4687 30.6461 63.8251 29.0238L46.4032 11.829C44.7595 10.2068 45.5115 7.43674 47.7568 6.84295L71.5556 0.549224Z" fill="#9C372B"/>
<path d="M75.1817 73.4403C75.7833 75.6564 73.7287 77.6842 71.4834 77.0904L47.6847 70.7967C45.4394 70.2029 44.6874 67.4328 46.3311 65.8106L63.7529 48.6158C65.3966 46.9936 68.2032 47.7358 68.8049 49.9518L75.1817 73.4403Z" fill="#9C372B"/>
<path d="M52.5735 51.3585C52.3014 51.6306 51.7262 51.7914 50.848 51.8409C49.9821 51.8904 48.9121 51.878 47.638 51.8038C46.3639 51.7296 45.6836 51.6925 45.597 51.6925C44.7558 51.6925 44.1497 51.6801 43.7786 51.6554H41.9232C41.651 51.5688 41.4222 51.1668 41.2366 50.4493C41.0511 49.7195 40.8655 48.6804 40.68 47.3321C40.5068 45.9714 40.414 45.2478 40.4017 45.1612C40.3522 43.9366 40.1543 43.1326 39.8079 42.7491C39.4616 42.3533 38.8307 42.1554 37.9153 42.1554H37.0989V51.2101C37.0742 51.3585 36.9443 51.4822 36.7093 51.5811C36.4743 51.6801 36.1341 51.742 35.6888 51.7667C35.2558 51.8038 34.8662 51.8224 34.5198 51.8224C34.1859 51.8347 33.7405 51.8347 33.1839 51.8224C32.6273 51.81 32.2871 51.8038 32.1634 51.8038H29.4915C27.9824 51.8038 26.8444 51.8162 26.0775 51.8409C25.9043 51.7667 25.7311 51.6801 25.5579 51.5811V23.8976C25.5579 23.5512 26.0527 23.378 27.0423 23.378H43.222C46.0299 23.4522 48.1637 24.1202 49.6234 25.3819C51.0954 26.6436 51.8314 28.4249 51.8314 30.7257C51.8314 33.7192 50.3222 35.9086 47.304 37.294C47.8607 37.4672 48.3616 37.7084 48.8069 38.0177C49.2523 38.3269 49.6234 38.6609 49.9202 39.0196C50.2171 39.366 50.4769 39.7865 50.6995 40.2813C50.9222 40.7761 51.0954 41.24 51.2191 41.6729C51.3428 42.1059 51.4479 42.6192 51.5345 43.213C51.6334 43.8067 51.7015 44.3201 51.7386 44.753C51.7757 45.186 51.819 45.7055 51.8685 46.3116C51.9303 46.9054 51.9798 47.3754 52.0169 47.7218V49.3546C52.054 49.5525 52.1653 49.8308 52.3509 50.1895C52.5488 50.5483 52.6725 50.8142 52.722 50.9874C52.722 51.2348 52.6725 51.3585 52.5735 51.3585ZM36.9876 31.2452C36.9876 31.9874 36.9938 32.5379 37.0062 32.8966C37.0185 33.2553 37.0866 33.7254 37.2103 34.3067C37.334 34.8881 37.5195 35.3025 37.7669 35.5499C38.2864 35.5499 38.775 35.4942 39.2327 35.3829C39.7028 35.2716 40.1543 35.0922 40.5872 34.8448C41.0202 34.5974 41.3603 34.2325 41.6077 33.7501C41.8675 33.2553 41.9974 32.6677 41.9974 31.9874C41.9974 31.6039 41.9293 31.2699 41.7933 30.9854C41.6572 30.6886 41.4593 30.4535 41.1995 30.2804C40.9398 30.1072 40.68 29.9711 40.4202 29.8722C40.1728 29.7608 39.8636 29.6866 39.4925 29.6495C39.1338 29.6 38.8493 29.5691 38.639 29.5567C38.4287 29.5444 38.1751 29.5382 37.8782 29.5382H37.4329C37.2474 29.6248 37.1237 29.7979 37.0618 30.0577C37.0123 30.3175 36.9876 30.7133 36.9876 31.2452Z" fill="black"/>
</g>
<defs>
<clipPath id="clip0_52_4">
<rect width="78" height="78" fill="white"/>
</clipPath>
</defs>
</svg>
