<svg width="187" height="192" viewBox="0 0 187 192" fill="none" xmlns="http://www.w3.org/2000/svg">
<path d="M175.908 116.816H132.11V112.817C132.11 103.15 136.743 92.8215 149.747 92.8215C159.108 92.8215 163.415 98.1036 165.379 102.534C166.288 104.584 168.857 105.576 171.115 104.753C173.375 103.929 174.469 101.6 173.561 99.5508C169.985 91.4831 163.04 86.385 154.157 85.1302V40.8545C154.157 39.7939 153.692 38.7768 152.865 38.027L112.225 1.17123C111.398 0.421401 110.277 0 109.108 0H14.7155C7.12743 0 0.954285 5.59894 0.954285 12.4812V179.474C0.954285 186.356 7.12743 191.955 14.7155 191.955H140.395C147.983 191.955 154.157 186.356 154.157 179.474V171.254H175.909C181.825 171.254 186.638 166.888 186.638 161.523V126.547C186.637 121.181 181.824 116.816 175.908 116.816ZM139.102 36.8554H113.517V13.6528L113.516 13.6521L139.102 36.8554ZM145.338 179.474H145.338C145.338 181.946 143.121 183.957 140.395 183.957H14.7155C11.9898 183.957 9.77295 181.946 9.77295 179.474V12.4812C9.77295 10.009 11.9898 7.99837 14.7155 7.99837H104.698V40.8545C104.698 43.0628 106.672 44.8537 109.108 44.8537H145.338V85.1185L145.343 85.1204C140.035 85.8526 135.444 87.942 131.804 91.2832C131.725 91.2795 131.648 91.2724 131.568 91.2724H47.4166C44.9819 91.2724 43.0073 93.0633 43.0073 95.2715C43.0073 97.4798 44.9819 99.2707 47.4166 99.2707H126.052C124.238 103.232 123.292 107.81 123.292 112.817V116.823C117.512 116.965 112.857 121.271 112.857 126.547V145.26H28.3933C25.9586 145.26 23.9839 147.051 23.9839 149.259C23.9839 151.467 25.9586 153.258 28.3933 153.258H112.857V161.523C112.857 166.889 117.67 171.254 123.586 171.254H145.338V179.474ZM177.819 161.523C177.819 162.478 176.962 163.256 175.908 163.256H123.586C122.532 163.256 121.675 162.478 121.675 161.523V126.547C121.675 125.591 122.532 124.814 123.586 124.814H175.908C176.962 124.814 177.819 125.591 177.819 126.547V161.523Z" fill="#949494"/>
<path d="M149.747 137.89C147.312 137.89 145.338 139.681 145.338 141.889V146.182C145.338 148.39 147.312 150.181 149.747 150.181C152.182 150.181 154.156 148.39 154.156 146.182V141.889C154.156 139.68 152.182 137.89 149.747 137.89Z" fill="#949494"/>
<path d="M28.3932 45.2834H80.8625C83.2972 45.2834 85.2718 43.4925 85.2718 41.2842C85.2718 39.076 83.2976 37.285 80.8625 37.285H28.3932C25.9585 37.285 23.9839 39.0756 23.9839 41.2842C23.9839 43.4928 25.9585 45.2834 28.3932 45.2834Z" fill="#949494"/>
<path d="M37.6526 59.28C37.6526 61.4882 39.6268 63.2791 42.0619 63.2791H101.586C104.021 63.2791 105.995 61.4886 105.995 59.28C105.995 57.0713 104.021 55.2808 101.586 55.2808H42.0619C39.6268 55.2811 37.6526 57.0717 37.6526 59.28Z" fill="#949494"/>
<path d="M101.586 73.277H42.0615C39.6268 73.277 37.6522 75.0679 37.6522 77.2762C37.6522 79.4844 39.6264 81.2754 42.0615 81.2754H101.586C104.02 81.2754 105.995 79.4848 105.995 77.2762C105.995 75.0676 104.02 73.277 101.586 73.277Z" fill="#949494"/>
<path d="M28.3932 99.2707H28.843C31.2777 99.2707 33.2523 97.4801 33.2523 95.2715C33.2523 93.0629 31.2781 91.2723 28.843 91.2723H28.3932C25.9585 91.2723 23.9839 93.0633 23.9839 95.2715C23.9839 97.4798 25.9585 99.2707 28.3932 99.2707Z" fill="#949494"/>
<path d="M37.6526 113.267C37.6526 115.476 39.6268 117.267 42.0619 117.267H101.586C104.021 117.267 105.995 115.476 105.995 113.267C105.995 111.059 104.021 109.268 101.586 109.268H42.0619C39.6268 109.269 37.6526 111.059 37.6526 113.267Z" fill="#949494"/>
<path d="M95.8634 127.264H42.0615C39.6268 127.264 37.6522 129.055 37.6522 131.263C37.6522 133.472 39.6264 135.263 42.0615 135.263H95.8634C98.2981 135.263 100.273 133.472 100.273 131.263C100.273 129.055 98.2986 127.264 95.8634 127.264Z" fill="#949494"/>
<path d="M101.586 163.256H42.0615C39.6268 163.256 37.6522 165.047 37.6522 167.255C37.6522 169.463 39.6264 171.254 42.0615 171.254H101.586C104.02 171.254 105.995 169.464 105.995 167.255C105.995 165.046 104.02 163.256 101.586 163.256Z" fill="#949494"/>
</svg>
