<svg width="90" height="90" viewBox="0 0 90 90" fill="none" xmlns="http://www.w3.org/2000/svg">
<g clip-path="url(#clip0_305_23)">
<circle cx="45" cy="45" r="45" fill="white"/>
<path d="M26.25 28C24.834 27.9999 23.46 28.4358 22.3529 29.2362C21.2458 30.0366 20.4713 31.1542 20.1563 32.4058L45 46.173L69.8437 32.4058C69.5287 31.1542 68.7542 30.0366 67.6471 29.2362C66.54 28.4358 65.166 27.9999 63.75 28H26.25ZM20 55.7667V35.6443L38.1344 45.6913L20 55.7667ZM41.1281 47.3517L20.5969 58.7587C21.1037 59.729 21.9041 60.5488 22.905 61.1227C23.9058 61.6965 25.0658 62.0008 26.25 62H45.8C45.2688 60.6349 44.9982 59.1976 45 57.75C44.9979 55.8888 45.4462 54.0498 46.3133 52.3628C47.1805 50.6758 48.4454 49.1818 50.0187 47.9863L48.8719 47.3488L45 49.4937L41.1281 47.3517ZM70 49.7345V35.6415L51.8656 45.6885L52.9219 46.2778C54.8352 45.4346 56.9352 44.9976 59.0625 45C63.4813 45 67.4219 46.8473 70 49.7345Z" fill="#9C372B"/>
<path d="M69 56.732C69 60.236 67.227 62.807 64.1234 62.807C62.5777 62.807 61.0443 62.123 60.6817 60.863H60.5496C60.187 62.111 58.881 62.792 57.4306 62.792C55.0645 62.792 53.5619 61.166 53.5619 58.49V56.903C53.5619 54.371 55.0399 52.703 57.4337 52.703C59.2313 52.703 60.1071 53.702 60.3622 54.593H60.4543V52.889H63.2353V59.459C63.2353 60.275 63.7884 60.719 64.4982 60.719C65.4662 60.719 66.4618 59.474 66.4618 56.549V56.195C66.4618 52.364 63.5426 49.217 58.8288 49.217H58.7059C53.8446 49.217 50.5935 52.418 50.5935 57.389V57.86C50.5935 63.461 54.3946 65.822 58.4908 65.822H58.6291C60.187 65.822 61.5022 65.612 62.255 65.282V67.475C61.5821 67.775 60.2792 68 58.4539 68H58.3187C52.4188 68 48 64.46 48 57.938V57.296C48 51.08 52.3665 47 58.709 47H58.8165C65.331 47 69 51.29 69 56.102V56.732ZM56.5856 57.362V58.043C56.5856 59.801 57.2831 60.443 58.3709 60.443C59.3235 60.443 60.104 59.933 60.104 58.214V57.113C60.104 55.565 59.259 54.989 58.3464 54.989C57.2831 54.989 56.5856 55.724 56.5856 57.362Z" fill="#9C372B"/>
</g>
<defs>
<clipPath id="clip0_305_23">
<rect width="90" height="90" fill="white"/>
</clipPath>
</defs>
</svg>
