<svg width="90" height="90" viewBox="0 0 90 90" fill="none" xmlns="http://www.w3.org/2000/svg">
<circle cx="45" cy="45" r="45" fill="white"/>
<g clip-path="url(#clip0_46_43)">
<path d="M25 27.865C25 26.2825 26.315 25 27.9375 25H62.0625C63.685 25 65 26.2825 65 27.865V62.135C65 63.7175 63.685 65 62.0625 65H27.9375C26.315 65 25 63.7175 25 62.135V27.865ZM37.3575 58.485V40.4225H31.355V58.485H37.3575ZM34.3575 37.955C36.45 37.955 37.7525 36.57 37.7525 34.835C37.715 33.0625 36.4525 31.715 34.3975 31.715C32.3425 31.715 31 33.065 31 34.835C31 36.57 32.3025 37.955 34.3175 37.955H34.3575ZM46.6275 58.485V48.3975C46.6275 47.8575 46.6675 47.3175 46.8275 46.9325C47.26 45.855 48.2475 44.7375 49.9075 44.7375C52.08 44.7375 52.9475 46.3925 52.9475 48.8225V58.485H58.95V48.125C58.95 42.575 55.99 39.995 52.04 39.995C48.855 39.995 47.4275 41.745 46.6275 42.9775V43.04H46.5875C46.6008 43.0191 46.6141 42.9983 46.6275 42.9775V40.4225H40.6275C40.7025 42.1175 40.6275 58.485 40.6275 58.485H46.6275Z" fill="#9C372B"/>
</g>
<defs>
<clipPath id="clip0_46_43">
<rect width="40" height="40" fill="white" transform="translate(25 25)"/>
</clipPath>
</defs>
</svg>
