<svg width="128" height="122" viewBox="0 0 128 122" fill="none" xmlns="http://www.w3.org/2000/svg">
<g clip-path="url(#clip0_301_3)">
<path d="M10.7056 12.0597C10.1039 9.84366 12.1585 7.81585 14.4038 8.40964L54.8191 19.0977C57.0644 19.6915 57.8165 22.4616 56.1728 24.0838L26.5867 53.2842C24.943 54.9065 22.1364 54.1642 21.5348 51.9482L10.7056 12.0597Z" fill="white"/>
<path d="M14.8814 113.356C12.6735 113.987 10.6188 111.959 11.1829 109.706L21.3369 69.1532C21.9011 66.9003 24.6609 66.1118 26.3047 67.7339L55.8929 96.9322C57.5367 98.5543 56.8315 101.371 54.6236 102.001L14.8814 113.356Z" fill="white"/>
<path d="M119.004 8.40961C121.249 7.81582 123.304 9.84363 122.702 12.0597L111.873 51.9482C111.271 54.1642 108.465 54.9064 106.821 53.2842L77.2348 24.0838C75.5911 22.4615 76.3432 19.6915 78.5885 19.0977L119.004 8.40961Z" fill="white"/>
<path d="M122.702 109.235C123.304 111.451 121.249 113.479 119.004 112.885L78.5885 102.197C76.3432 101.603 75.5911 98.8329 77.2348 97.2106L106.821 68.0102C108.465 66.388 111.271 67.1302 111.873 69.3462L122.702 109.235Z" fill="white"/>
<path d="M87.2142 79.3937C86.8131 79.7947 85.9655 80.0317 84.6712 80.1046C83.3952 80.1775 81.8183 80.1593 79.9407 80.0499C78.0631 79.9406 77.0605 79.8859 76.9329 79.8859C75.6933 79.8859 74.8001 79.8676 74.2532 79.8312H71.5189C71.1178 79.7036 70.7806 79.1111 70.5071 78.0538C70.2337 76.9783 69.9603 75.4471 69.6868 73.4601C69.4316 71.4549 69.2949 70.3885 69.2767 70.2609C69.2038 68.4562 68.9121 67.2713 68.4017 66.7062C67.8913 66.1228 66.9616 65.8312 65.6126 65.8312H64.4095V79.1749C64.373 79.3937 64.1816 79.576 63.8353 79.7218C63.4889 79.8676 62.9876 79.9588 62.3314 79.9952C61.6933 80.0499 61.1191 80.0773 60.6087 80.0773C60.1165 80.0955 59.4603 80.0955 58.64 80.0773C57.8196 80.059 57.3183 80.0499 57.136 80.0499H53.1985C50.9746 80.0499 49.2975 80.0682 48.1673 80.1046C47.9121 79.9952 47.6569 79.8676 47.4017 79.7218V38.9249C47.4017 38.4145 48.1308 38.1593 49.5892 38.1593H73.4329C77.5709 38.2687 80.7155 39.2531 82.8665 41.1124C85.0358 42.9718 86.1204 45.5968 86.1204 48.9874C86.1204 53.3989 83.8965 56.6254 79.4485 58.6671C80.2689 58.9223 81.0071 59.2778 81.6634 59.7335C82.3196 60.1892 82.8665 60.6814 83.304 61.2101C83.7415 61.7205 84.1243 62.3403 84.4525 63.0695C84.7806 63.7986 85.0358 64.4822 85.2181 65.1202C85.4004 65.7583 85.5553 66.5148 85.6829 67.3898C85.8288 68.2648 85.929 69.0213 85.9837 69.6593C86.0384 70.2973 86.1022 71.0629 86.1751 71.9562C86.2663 72.8312 86.3392 73.5239 86.3939 74.0343V76.4406C86.4485 76.7322 86.6126 77.1424 86.886 77.671C87.1777 78.1997 87.36 78.5916 87.4329 78.8468C87.4329 79.2114 87.36 79.3937 87.2142 79.3937ZM64.2454 49.7531C64.2454 50.8468 64.2545 51.658 64.2728 52.1866C64.291 52.7153 64.3913 53.408 64.5735 54.2648C64.7558 55.1215 65.0293 55.7322 65.3939 56.0968C66.1595 56.0968 66.8795 56.0148 67.554 55.8507C68.2467 55.6866 68.9121 55.4223 69.5501 55.0577C70.1881 54.6932 70.6894 54.1554 71.054 53.4445C71.4368 52.7153 71.6282 51.8494 71.6282 50.8468C71.6282 50.2817 71.528 49.7895 71.3275 49.3702C71.1269 48.9327 70.8353 48.5864 70.4525 48.3312C70.0696 48.076 69.6868 47.8754 69.304 47.7296C68.9394 47.5656 68.4837 47.4562 67.9368 47.4015C67.4082 47.3286 66.9889 47.283 66.679 47.2648C66.3691 47.2465 65.9954 47.2374 65.5579 47.2374H64.9017C64.6282 47.365 64.4459 47.6202 64.3548 48.0031C64.2819 48.3859 64.2454 48.9692 64.2454 49.7531Z" fill="black"/>
</g>
<defs>
<clipPath id="clip0_301_3">
<rect width="128" height="122" fill="white"/>
</clipPath>
</defs>
</svg>
