<svg width="90" height="90" viewBox="0 0 90 90" fill="none" xmlns="http://www.w3.org/2000/svg">
<circle cx="45" cy="45" r="45" fill="white"/>
<g clip-path="url(#clip0_46_42)">
<path d="M65 45C65 50.3043 62.8929 55.3914 59.1421 59.1421C55.3914 62.8929 50.3043 65 45 65C39.6957 65 34.6086 62.8929 30.8579 59.1421C27.1071 55.3914 25 50.3043 25 45C25 39.6957 27.1071 34.6086 30.8579 30.8579C34.6086 27.1071 39.6957 25 45 25C50.3043 25 55.3914 27.1071 59.1421 30.8579C62.8929 34.6086 65 39.6957 65 45ZM45.7175 39.765C43.7725 40.575 39.8825 42.25 34.0525 44.79C33.1075 45.165 32.61 45.535 32.565 45.895C32.49 46.5025 33.2525 46.7425 34.29 47.07L34.7275 47.2075C35.7475 47.54 37.1225 47.9275 37.835 47.9425C38.485 47.9575 39.2075 47.6925 40.005 47.1425C45.4525 43.465 48.265 41.6075 48.44 41.5675C48.565 41.5375 48.74 41.5025 48.855 41.6075C48.9725 41.71 48.96 41.9075 48.9475 41.96C48.8725 42.2825 45.88 45.0625 44.3325 46.5025C43.85 46.9525 43.5075 47.27 43.4375 47.3425C43.2834 47.5 43.1267 47.6551 42.9675 47.8075C42.0175 48.7225 41.3075 49.4075 43.005 50.5275C43.8225 51.0675 44.4775 51.51 45.13 51.955C45.84 52.44 46.55 52.9225 47.47 53.5275C47.7025 53.6775 47.9275 53.84 48.145 53.995C48.9725 54.585 49.72 55.115 50.6375 55.03C51.1725 54.98 51.725 54.48 52.005 52.98C52.6675 49.4375 53.97 41.765 54.27 38.6025C54.2883 38.3396 54.2774 38.0755 54.2375 37.815C54.214 37.6048 54.1122 37.4111 53.9525 37.2725C53.725 37.1155 53.4538 37.0341 53.1775 37.04C52.4275 37.0525 51.27 37.455 45.7175 39.765Z" fill="#9C372B"/>
</g>
<defs>
<clipPath id="clip0_46_42">
<rect width="40" height="40" fill="white" transform="translate(25 25)"/>
</clipPath>
</defs>
</svg>
