<svg width="90" height="90" viewBox="0 0 90 90" fill="none" xmlns="http://www.w3.org/2000/svg">
<circle cx="45" cy="45" r="45" fill="white"/>
<g clip-path="url(#clip0_46_41)">
<path d="M59.0025 30.8151C57.1687 28.9643 54.9848 27.497 52.5783 26.4986C50.1717 25.5003 47.5904 24.9909 44.985 25.0001C34.0675 25.0001 25.17 33.8951 25.16 44.8151C25.16 48.3126 26.075 51.7151 27.8025 54.7276L25 65.0001L35.51 62.2451C38.4175 63.8274 41.6748 64.6568 44.985 64.6576H44.995C55.915 64.6576 64.81 55.7626 64.82 44.8326C64.8225 42.2277 64.3095 39.6481 63.3107 37.2423C62.3118 34.8365 60.8493 32.6522 59.0025 30.8151ZM44.985 61.3026C42.0325 61.3036 39.1343 60.5091 36.595 59.0026L35.995 58.6426L29.76 60.2776L31.425 54.1951L31.035 53.5676C29.3845 50.9434 28.5116 47.9052 28.5175 44.8051C28.5175 35.7401 35.91 28.3451 44.995 28.3451C47.1594 28.3412 49.3031 28.7658 51.3026 29.5944C53.302 30.4229 55.1177 31.639 56.645 33.1726C58.1776 34.7002 59.3925 36.5162 60.2198 38.5157C61.0471 40.5152 61.4703 42.6587 61.465 44.8226C61.455 53.9201 54.0625 61.3026 44.985 61.3026ZM54.0225 48.9676C53.53 48.7201 51.0975 47.5226 50.64 47.3526C50.185 47.1901 49.8525 47.1051 49.5275 47.6001C49.195 48.0926 48.245 49.2151 47.96 49.5376C47.675 49.8701 47.38 49.9076 46.885 49.6626C46.3925 49.4126 44.795 48.8926 42.905 47.2001C41.43 45.8876 40.4425 44.2626 40.1475 43.7701C39.8625 43.2751 40.12 43.0101 40.3675 42.7626C40.585 42.5426 40.86 42.1826 41.1075 41.8976C41.3575 41.6126 41.44 41.4026 41.6025 41.0726C41.765 40.7376 41.6875 40.4526 41.565 40.2051C41.44 39.9576 40.4525 37.5151 40.035 36.5301C39.635 35.5576 39.2275 35.6926 38.9225 35.6801C38.6375 35.6626 38.305 35.6626 37.9725 35.6626C37.7214 35.6689 37.4743 35.7269 37.2467 35.8332C37.0192 35.9395 36.816 36.0916 36.65 36.2801C36.195 36.7751 34.9225 37.9726 34.9225 40.4151C34.9225 42.8576 36.6975 45.2051 36.9475 45.5376C37.1925 45.8701 40.4325 50.8676 45.405 53.0176C46.58 53.5301 47.505 53.8326 48.2275 54.0626C49.415 54.4426 50.4875 54.3851 51.3425 54.2626C52.2925 54.1176 54.27 53.0626 54.6875 51.9051C55.0975 50.7451 55.0975 49.7551 54.9725 49.5476C54.85 49.3376 54.5175 49.2151 54.0225 48.9676Z" fill="#9C372B"/>
</g>
<defs>
<clipPath id="clip0_46_41">
<rect width="40" height="40" fill="white" transform="translate(25 25)"/>
</clipPath>
</defs>
</svg>
